<mxfile host="Electron" modified="2024-05-15T08:08:14.732Z" agent="Mozilla/5.0 (Windows NT 10.0; Win64; x64) AppleWebKit/537.36 (KHTML, like Gecko) draw.io/22.1.2 Chrome/114.0.5735.289 Electron/25.9.4 Safari/537.36" etag="FFnYXoI8zTxnv935HWiM" version="22.1.2" type="device">
  <diagram name="Page-1" id="Gu7j2BjniduVikbYh7by">
    <mxGraphModel dx="757" dy="571" grid="1" gridSize="10" guides="1" tooltips="1" connect="1" arrows="1" fold="1" page="1" pageScale="1" pageWidth="850" pageHeight="1100" math="0" shadow="0">
      <root>
        <mxCell id="0" />
        <mxCell id="1" parent="0" />
        <mxCell id="4aH8_TZyad5lJnQbj9__-43" value="ujian(admin-pemateri)" style="swimlane;childLayout=stackLayout;resizeParent=1;resizeParentMax=0;startSize=20;html=1;" parent="1" vertex="1">
          <mxGeometry x="180.00000000000045" y="190" width="390" height="520" as="geometry" />
        </mxCell>
        <mxCell id="4aH8_TZyad5lJnQbj9__-44" value="frontend" style="swimlane;startSize=20;html=1;" parent="4aH8_TZyad5lJnQbj9__-43" vertex="1">
          <mxGeometry y="20" width="200" height="500" as="geometry" />
        </mxCell>
        <mxCell id="4aH8_TZyad5lJnQbj9__-45" value="" style="ellipse;html=1;shape=startState;fillColor=#000000;strokeColor=#FFFFFF;" parent="4aH8_TZyad5lJnQbj9__-44" vertex="1">
          <mxGeometry x="78.75" y="50" width="28.75" height="30" as="geometry" />
        </mxCell>
        <mxCell id="4aH8_TZyad5lJnQbj9__-46" value="" style="edgeStyle=orthogonalEdgeStyle;html=1;verticalAlign=bottom;endArrow=open;endSize=8;strokeColor=#000000;rounded=0;" parent="4aH8_TZyad5lJnQbj9__-44" source="4aH8_TZyad5lJnQbj9__-45" edge="1">
          <mxGeometry relative="1" as="geometry">
            <mxPoint x="92.49999999999955" y="110" as="targetPoint" />
          </mxGeometry>
        </mxCell>
        <mxCell id="4aH8_TZyad5lJnQbj9__-47" value="ujian button" style="html=1;whiteSpace=wrap;" parent="4aH8_TZyad5lJnQbj9__-44" vertex="1">
          <mxGeometry x="50" y="110" width="85" height="30" as="geometry" />
        </mxCell>
        <mxCell id="4aH8_TZyad5lJnQbj9__-49" value="data mapel" style="html=1;whiteSpace=wrap;" parent="4aH8_TZyad5lJnQbj9__-44" vertex="1">
          <mxGeometry x="50" y="170" width="85" height="30" as="geometry" />
        </mxCell>
        <mxCell id="4aH8_TZyad5lJnQbj9__-52" value="crud ujian" style="html=1;whiteSpace=wrap;" parent="4aH8_TZyad5lJnQbj9__-44" vertex="1">
          <mxGeometry x="50" y="260" width="85" height="30" as="geometry" />
        </mxCell>
        <mxCell id="4aH8_TZyad5lJnQbj9__-53" value="" style="ellipse;html=1;shape=endState;fillColor=#000000;strokeColor=#000000;" parent="4aH8_TZyad5lJnQbj9__-44" vertex="1">
          <mxGeometry x="77.49999999999955" y="430" width="30" height="30" as="geometry" />
        </mxCell>
        <mxCell id="4aH8_TZyad5lJnQbj9__-65" style="edgeStyle=orthogonalEdgeStyle;rounded=0;orthogonalLoop=1;jettySize=auto;html=1;exitX=0.5;exitY=1;exitDx=0;exitDy=0;entryX=0.5;entryY=0;entryDx=0;entryDy=0;" parent="4aH8_TZyad5lJnQbj9__-44" source="4aH8_TZyad5lJnQbj9__-64" target="4aH8_TZyad5lJnQbj9__-53" edge="1">
          <mxGeometry relative="1" as="geometry" />
        </mxCell>
        <mxCell id="4aH8_TZyad5lJnQbj9__-64" value="data ujian" style="html=1;whiteSpace=wrap;" parent="4aH8_TZyad5lJnQbj9__-44" vertex="1">
          <mxGeometry x="50" y="360" width="85" height="30" as="geometry" />
        </mxCell>
        <mxCell id="4aH8_TZyad5lJnQbj9__-54" value="backend" style="swimlane;startSize=20;html=1;" parent="4aH8_TZyad5lJnQbj9__-43" vertex="1">
          <mxGeometry x="200" y="20" width="190" height="500" as="geometry" />
        </mxCell>
        <mxCell id="4aH8_TZyad5lJnQbj9__-55" value="ambil data mapel" style="html=1;whiteSpace=wrap;" parent="4aH8_TZyad5lJnQbj9__-54" vertex="1">
          <mxGeometry x="45" y="110" width="85" height="30" as="geometry" />
        </mxCell>
        <mxCell id="4aH8_TZyad5lJnQbj9__-56" value="ambil data ujian" style="html=1;whiteSpace=wrap;" parent="4aH8_TZyad5lJnQbj9__-54" vertex="1">
          <mxGeometry x="45" y="220" width="85" height="30" as="geometry" />
        </mxCell>
        <mxCell id="4aH8_TZyad5lJnQbj9__-61" value="operasi crud ujian" style="html=1;whiteSpace=wrap;" parent="4aH8_TZyad5lJnQbj9__-54" vertex="1">
          <mxGeometry x="45" y="310" width="85" height="30" as="geometry" />
        </mxCell>
        <mxCell id="4aH8_TZyad5lJnQbj9__-57" style="edgeStyle=orthogonalEdgeStyle;rounded=0;orthogonalLoop=1;jettySize=auto;html=1;exitX=1;exitY=0.5;exitDx=0;exitDy=0;entryX=0;entryY=0.5;entryDx=0;entryDy=0;" parent="4aH8_TZyad5lJnQbj9__-43" source="4aH8_TZyad5lJnQbj9__-47" target="4aH8_TZyad5lJnQbj9__-55" edge="1">
          <mxGeometry relative="1" as="geometry" />
        </mxCell>
        <mxCell id="4aH8_TZyad5lJnQbj9__-58" style="edgeStyle=orthogonalEdgeStyle;rounded=0;orthogonalLoop=1;jettySize=auto;html=1;exitX=0.5;exitY=1;exitDx=0;exitDy=0;entryX=1;entryY=0.5;entryDx=0;entryDy=0;" parent="4aH8_TZyad5lJnQbj9__-43" source="4aH8_TZyad5lJnQbj9__-55" target="4aH8_TZyad5lJnQbj9__-49" edge="1">
          <mxGeometry relative="1" as="geometry" />
        </mxCell>
        <mxCell id="4aH8_TZyad5lJnQbj9__-60" style="edgeStyle=orthogonalEdgeStyle;rounded=0;orthogonalLoop=1;jettySize=auto;html=1;exitX=0.5;exitY=1;exitDx=0;exitDy=0;entryX=1;entryY=0.5;entryDx=0;entryDy=0;" parent="4aH8_TZyad5lJnQbj9__-43" source="4aH8_TZyad5lJnQbj9__-56" target="4aH8_TZyad5lJnQbj9__-52" edge="1">
          <mxGeometry relative="1" as="geometry">
            <mxPoint x="99.99999999999955" y="340" as="targetPoint" />
          </mxGeometry>
        </mxCell>
        <mxCell id="4aH8_TZyad5lJnQbj9__-48" style="edgeStyle=orthogonalEdgeStyle;rounded=0;orthogonalLoop=1;jettySize=auto;html=1;exitX=0.5;exitY=1;exitDx=0;exitDy=0;entryX=0;entryY=0.5;entryDx=0;entryDy=0;" parent="4aH8_TZyad5lJnQbj9__-43" source="4aH8_TZyad5lJnQbj9__-49" target="4aH8_TZyad5lJnQbj9__-56" edge="1">
          <mxGeometry relative="1" as="geometry">
            <mxPoint x="60" y="250" as="targetPoint" />
          </mxGeometry>
        </mxCell>
        <mxCell id="4aH8_TZyad5lJnQbj9__-62" style="edgeStyle=orthogonalEdgeStyle;rounded=0;orthogonalLoop=1;jettySize=auto;html=1;exitX=0.5;exitY=1;exitDx=0;exitDy=0;entryX=0;entryY=0.5;entryDx=0;entryDy=0;" parent="4aH8_TZyad5lJnQbj9__-43" source="4aH8_TZyad5lJnQbj9__-52" target="4aH8_TZyad5lJnQbj9__-61" edge="1">
          <mxGeometry relative="1" as="geometry" />
        </mxCell>
        <mxCell id="4aH8_TZyad5lJnQbj9__-63" style="edgeStyle=orthogonalEdgeStyle;rounded=0;orthogonalLoop=1;jettySize=auto;html=1;exitX=0.5;exitY=1;exitDx=0;exitDy=0;entryX=1;entryY=0.5;entryDx=0;entryDy=0;" parent="4aH8_TZyad5lJnQbj9__-43" source="4aH8_TZyad5lJnQbj9__-61" target="4aH8_TZyad5lJnQbj9__-64" edge="1">
          <mxGeometry relative="1" as="geometry">
            <mxPoint x="159.99999999999955" y="440" as="targetPoint" />
          </mxGeometry>
        </mxCell>
      </root>
    </mxGraphModel>
  </diagram>
</mxfile>
